#define iconify_hover_width 10
#define iconify_hover_height 10
static unsigned char iconify_hover_bits[] = {
   0x00, 0x00, 0x78, 0x00, 0xfc, 0x00, 0xfe, 0x01, 0xfe, 0x01, 0x86, 0x01,
   0xfe, 0x01, 0xfc, 0x00, 0x78, 0x00, 0x00, 0x00 };
