#define max_toggled_width 10
#define max_toggled_height 10
static unsigned char max_toggled_bits[] = {
   0x00, 0x00, 0x78, 0x00, 0xfc, 0x00, 0xde, 0x01, 0x9e, 0x01, 0xe6, 0x01,
   0xee, 0x01, 0xfc, 0x00, 0x78, 0x00, 0x00, 0x00 };
