#define desk_toggled_width 18
#define desk_toggled_height 18
static unsigned char desk_toggled_bits[] = {
   0x00, 0x00, 0x00, 0x00, 0x00, 0x00, 0x00, 0x00, 0x00, 0x00, 0x00, 0x00,
   0x70, 0x38, 0x00, 0xf0, 0x3f, 0x00, 0x70, 0x38, 0x00, 0x20, 0x10, 0x00,
   0x20, 0x10, 0x00, 0x20, 0x10, 0x00, 0x20, 0x10, 0x00, 0x70, 0x38, 0x00,
   0xf0, 0x3f, 0x00, 0x70, 0x38, 0x00, 0x00, 0x00, 0x00, 0x00, 0x00, 0x00,
   0x00, 0x00, 0x00, 0x00, 0x00, 0x00 };
