#define max_toggled_width 18
#define max_toggled_height 18
static unsigned char max_toggled_bits[] = {
   0x00, 0x00, 0x00, 0x00, 0x00, 0x00, 0x00, 0x00, 0x00, 0x00, 0x03, 0x00,
   0x80, 0x07, 0x00, 0xc0, 0x0c, 0x00, 0x60, 0x18, 0x00, 0x30, 0x30, 0x00,
   0x18, 0x60, 0x00, 0x18, 0x60, 0x00, 0x30, 0x30, 0x00, 0x60, 0x18, 0x00,
   0xc0, 0x0c, 0x00, 0x80, 0x07, 0x00, 0x00, 0x03, 0x00, 0x00, 0x00, 0x00,
   0x00, 0x00, 0x00, 0x00, 0x00, 0x00 };
