#define max_width 6
#define max_height 6
static unsigned char max_bits[] = {
   0x00, 0x3e, 0x2a, 0x3e, 0x2a, 0x3e };
