<?xml version="1.0" encoding="UTF-8"?>
<svg width="24px" height="24px" version="1.1" viewBox="0 0 24 24" xmlns="http://www.w3.org/2000/svg" xmlns:cc="http://creativecommons.org/ns#" xmlns:dc="http://purl.org/dc/elements/1.1/" xmlns:rdf="http://www.w3.org/1999/02/22-rdf-syntax-ns#">
 <metadata>
  <rdf:RDF>
   <cc:Work rdf:about="">
    <dc:format>image/svg+xml</dc:format>
    <dc:type rdf:resource="http://purl.org/dc/dcmitype/StillImage"/>
    <dc:title/>
   </cc:Work>
  </rdf:RDF>
 </metadata>
 <g fill="#fff">
  <path d="m8.9297 9.6133v4.9609c0 0.27734-0.22266 0.49609-0.49609 0.49609h-0.99219c-0.27344 0-0.49609-0.21875-0.49609-0.49609v-4.9609c0-0.27344 0.22266-0.49609 0.49609-0.49609h0.99219c0.27344 0 0.49609 0.22266 0.49609 0.49609z"/>
  <path d="m16.867 9.6133v4.9609c0 0.27734-0.21875 0.49609-0.49609 0.49609h-0.99219c-0.27344 0-0.49609-0.21875-0.49609-0.49609v-4.9609c0-0.27344 0.22266-0.49609 0.49609-0.49609h0.99219c0.27734 0 0.49609 0.22266 0.49609 0.49609z"/>
  <path d="m2.9766 11.598h2.4805v0.99219h-2.4805z"/>
  <path d="m18.355 11.598h2.4844v0.99219h-2.4844z"/>
  <path d="m10.418 11.598h2.9766v0.99219h-2.9766z"/>
  <path d="m10.418 10.109h-4.9609l2.4805-3.9688z"/>
  <path d="m18.355 10.109h-4.9609l2.4805-3.9688z"/>
  <path d="m3.9688 2.1719c-1.0977 0-1.9844 0.88672-1.9844 1.9844v15.875c0 1.1016 0.88672 1.9883 1.9844 1.9883h15.875c1.1016 0 1.9883-0.88672 1.9883-1.9883v-15.875c0-1.0977-0.88672-1.9844-1.9883-1.9844zm0.99219 1.9844h13.891c0.55078 0 0.99219 0.44141 0.99219 0.99219v13.891c0 0.55078-0.44141 0.99219-0.99219 0.99219h-13.891c-0.55078 0-0.99219-0.44141-0.99219-0.99219v-13.891c0-0.55078 0.44141-0.99219 0.99219-0.99219z"/>
 </g>
</svg>
