<?xml version="1.0" encoding="UTF-8"?>
<svg width="16" height="16" version="1.1" xmlns="http://www.w3.org/2000/svg" xmlns:cc="http://creativecommons.org/ns#" xmlns:dc="http://purl.org/dc/elements/1.1/" xmlns:rdf="http://www.w3.org/1999/02/22-rdf-syntax-ns#">
 <style/>
 <metadata>
  <rdf:RDF>
   <cc:Work rdf:about="">
    <dc:format>image/svg+xml</dc:format>
    <dc:type rdf:resource="http://purl.org/dc/dcmitype/StillImage"/>
    <dc:title/>
   </cc:Work>
  </rdf:RDF>
 </metadata>
 <defs>
  <style id="current-color-scheme" type="text/css">.ColorScheme-Text { color:#dfdfdf; } .ColorScheme-Highlight { color:#4285f4; }</style>
 </defs>
 <path class="ColorScheme-Text" d="m6.3789 2s-1.7605-0.042953-3.625 1.498c-1.8646 1.5411-2.7539 4.7312-2.7539 9.3262 0 0 2.1383 2.0748 5 2.1758 0 0 0.61156-0.452 1-1-1.6444-0.547-2.5605-2.3672-2.5605-2.3672 1.5152 0.953 2.9894 1.3502 4.5605 1.3672 1.5711-0.017 3.0453-0.41419 4.5605-1.3672 0 1e-6 -0.9161 1.8202-2.5605 2.3672 0.38844 0.548 1 1 1 1 2.8617-0.101 5-2.1758 5-2.1758 0-4.595-0.88928-7.7851-2.7539-9.3262-1.8645-1.541-3.625-1.498-3.625-1.498l-0.12891 0.17188c2.3308 0.7347 3.3906 2.373 3.3906 2.373s-0.28456-0.17184-0.76367-0.40234c-1.4532-0.7848-2.7858-1.1426-4.1191-1.1426-1.3333 0-2.666 0.35778-4.1191 1.1426-0.47911 0.2305-0.76367 0.40234-0.76367 0.40234s1.0599-1.6383 3.3906-2.373l-0.12891-0.17188zm-0.87891 6c0.83813 0 1.515 0.668 1.5 1.5 0 0.832-0.66187 1.5-1.5 1.5-0.82333 0-1.5-0.668-1.5-1.5s0.66197-1.5 1.5-1.5zm5 0c0.83803 0 1.5 0.668 1.5 1.5s-0.67667 1.5-1.5 1.5c-0.83813 0-1.5-0.668-1.5-1.5-0.014999-0.832 0.66187-1.5 1.5-1.5z" fill="#606060"/>
</svg>
