#define bullet_width 6
#define bullet_height 6
static unsigned char bullet_bits[] = {
   0x00, 0x02, 0x06, 0x0e, 0x06, 0x02 };
