#define stick_toggled_width 10
#define stick_toggled_height 10
static unsigned char stick_toggled_bits[] = {
   0xff, 0x03, 0x01, 0x02, 0xcd, 0x02, 0xcd, 0x02, 0x01, 0x02, 0x01, 0x02,
   0xcd, 0x02, 0xcd, 0x02, 0x01, 0x02, 0xff, 0x03 };
