<?xml version="1.0" encoding="UTF-8"?>
<svg width="32px" height="32px" version="1.1" viewBox="0 0 32 32" xmlns="http://www.w3.org/2000/svg" xmlns:cc="http://creativecommons.org/ns#" xmlns:dc="http://purl.org/dc/elements/1.1/" xmlns:rdf="http://www.w3.org/1999/02/22-rdf-syntax-ns#">
 <metadata>
  <rdf:RDF>
   <cc:Work rdf:about="">
    <dc:format>image/svg+xml</dc:format>
    <dc:type rdf:resource="http://purl.org/dc/dcmitype/StillImage"/>
    <dc:title/>
   </cc:Work>
  </rdf:RDF>
 </metadata>
 <g fill="#fff">
  <path d="m11.906 12.82v6.6133c0 0.36719-0.29688 0.66016-0.66016 0.66016h-1.3242c-0.36328 0-0.66016-0.29297-0.66016-0.66016v-6.6133c0-0.36719 0.29688-0.66406 0.66016-0.66406h1.3242c0.36328 0 0.66016 0.29688 0.66016 0.66406z"/>
  <path d="m22.492 12.82v6.6133c0 0.36719-0.29688 0.66016-0.66016 0.66016h-1.3242c-0.36719 0-0.66406-0.29297-0.66406-0.66016v-6.6133c0-0.36719 0.29688-0.66406 0.66406-0.66406h1.3242c0.36328 0 0.66016 0.29688 0.66016 0.66406z"/>
  <path d="m3.9688 15.465h3.3086v1.3242h-3.3086z"/>
  <path d="m24.477 15.465h3.3086v1.3242h-3.3086z"/>
  <path d="m13.891 15.465h3.9688v1.3242h-3.9688z"/>
  <path d="m13.891 13.48h-6.6133l3.3086-5.293z"/>
  <path d="m24.477 13.48h-6.6172l3.3086-5.293z"/>
  <path d="m5.293 2.8945c-1.4648 0-2.6484 1.1836-2.6484 2.6484v21.168c0 1.4648 1.1836 2.6445 2.6484 2.6445h21.168c1.4648 0 2.6445-1.1797 2.6445-2.6445v-21.168c0-1.4648-1.1797-2.6484-2.6445-2.6484zm1.3203 2.6484h18.523c0.73438 0 1.3242 0.58984 1.3242 1.3242v18.52c0 0.73438-0.58984 1.3242-1.3242 1.3242h-18.523c-0.73047 0-1.3203-0.58984-1.3203-1.3242v-18.52c0-0.73438 0.58984-1.3242 1.3203-1.3242z"/>
 </g>
</svg>
