<?xml version="1.0" encoding="UTF-8" standalone="no"?>
<svg
   xmlns:dc="http://purl.org/dc/elements/1.1/"
   xmlns:cc="http://creativecommons.org/ns#"
   xmlns:rdf="http://www.w3.org/1999/02/22-rdf-syntax-ns#"
   xmlns:svg="http://www.w3.org/2000/svg"
   xmlns="http://www.w3.org/2000/svg"
   xmlns:sodipodi="http://sodipodi.sourceforge.net/DTD/sodipodi-0.dtd"
   xmlns:inkscape="http://www.inkscape.org/namespaces/inkscape"
   height="512"
   width="512"
   version="1.1"
   id="svg22"
   sodipodi:docname="simplescreenrecorder.svg"
   inkscape:version="1.0.1 (3bc2e813f5, 2020-09-07, custom)">
  <style
     id="style853"></style>
  <metadata
     id="metadata28">
    <rdf:RDF>
      <cc:Work
         rdf:about="">
        <dc:format>image/svg+xml</dc:format>
        <dc:type
           rdf:resource="http://purl.org/dc/dcmitype/StillImage" />
        <dc:title></dc:title>
      </cc:Work>
    </rdf:RDF>
  </metadata>
  <defs
     id="defs26" />
  <sodipodi:namedview
     pagecolor="#ffffff"
     bordercolor="#666666"
     borderopacity="1"
     objecttolerance="10"
     gridtolerance="10"
     guidetolerance="10"
     inkscape:pageopacity="0"
     inkscape:pageshadow="2"
     inkscape:window-width="849"
     inkscape:window-height="480"
     id="namedview24"
     showgrid="false"
     inkscape:zoom="1.6738281"
     inkscape:cx="256"
     inkscape:cy="253.61027"
     inkscape:window-x="0"
     inkscape:window-y="0"
     inkscape:window-maximized="0"
     inkscape:current-layer="svg22" />
  <rect
     style="fill:#6d6c6d;fill-opacity:1;fill-rule:evenodd;"
     width="478.229"
     height="302.257"
     x="18.18"
     y="64.54"
     id="rect2" />
  <path
     style="fill:#6b6b6b"
     d="m 169.89488,447.41541 c -0.28017,-0.73008 -0.37493,-3.20157 -0.2106,-5.4922 l 0.29877,-4.16476 19.90621,-0.25825 c 15.70957,-0.20381 20.33104,-0.55586 21.92169,-1.66995 1.70202,-1.19214 8.29985,-1.41171 42.42184,-1.41171 30.57727,0 40.9134,0.29016 42.49071,1.19282 1.39516,0.79841 8.55269,1.35059 21.64664,1.66996 l 19.56229,0.47713 0,5.24841 0,5.24842 -83.76409,0.24379 c -70.82377,0.20612 -83.8428,0.0387 -84.27346,-1.08366 z"
     id="path4" />
  <path
     style="fill:#6d6c6d;fill-opacity:1;"
     id="path6" />
  <rect
     style="fill:#989898;fill-opacity:1;fill-rule:evenodd;"
     width="121.503"
     height="71.731"
     x="194.59"
     y="365.95"
     id="rect8" />
  <path
     d="m 45.008718,87.06478 425.308792,0 -231.164,231.66152 z"
     style="fill:#c7282f;fill-opacity:1;"
     id="path10" />
  <path
     d="M 44.694545,342.80701 205.09012,247.31204 44.697679,87.06478 Z"
     style="fill:#c7282f;fill-opacity:1;"
     id="path12" />
  <path
     style="fill:#c7282f;fill-opacity:1;"
     d="m 471.44516,342.67933 -427.651707,0 L 470.41212,87.06478 Z"
     id="path14" />
  <rect
     style="fill:#cccccc;fill-opacity:1;fill-rule:evenodd;"
     width="189.002"
     height="142.452"
     x="93.26"
     y="142.7"
     ry="15.936"
     id="rect16" />
  <rect
     style="fill:#cccccc;fill-opacity:1;fill-rule:evenodd;"
     width="33.294"
     height="90.102"
     x="306.33"
     y="168.19"
     ry="10.079"
     id="rect18" />
  <rect
     style="fill:#cccccc;fill-opacity:1;fill-rule:evenodd;"
     width="53.135"
     height="142.836"
     x="365.94"
     y="142.5"
     ry="15.979"
     id="rect20" />
</svg>
