#define desk_toggled_width 10
#define desk_toggled_height 10
static unsigned char desk_toggled_bits[] = {
   0x00, 0x00, 0x78, 0x00, 0xfc, 0x00, 0x86, 0x01, 0xb6, 0x01, 0xb6, 0x01,
   0x86, 0x01, 0xfc, 0x00, 0x78, 0x00, 0x00, 0x00 };
