#define desk_hover_width 10
#define desk_hover_height 10
static unsigned char desk_hover_bits[] = {
   0x00, 0x00, 0x78, 0x00, 0xfc, 0x00, 0xb6, 0x01, 0xfe, 0x01, 0xfe, 0x01,
   0xb6, 0x01, 0xfc, 0x00, 0x78, 0x00, 0x00, 0x00 };
