#define desk_toggled_width 8
#define desk_toggled_height 8
static unsigned char desk_toggled_bits[] = {
   0xe7, 0xff, 0xe7, 0x5a, 0x5a, 0xe7, 0xff, 0xe7 };
