#define shade_toggled_width 8
#define shade_toggled_height 8
static unsigned char shade_toggled_bits[] = {
   0x00, 0x00, 0x00, 0xc3, 0x66, 0x3c, 0x18, 0x00 };
