#define bullet_width 4
#define bullet_height 8
static unsigned char bullet_bits[] = {
   0x00, 0x03, 0x03, 0x0c, 0x0c, 0x03, 0x03, 0x00 };
