<?xml version="1.0" encoding="UTF-8"?>
<svg version="1.1" viewBox="0 0 16 16" xmlns="http://www.w3.org/2000/svg" xmlns:cc="http://creativecommons.org/ns#" xmlns:dc="http://purl.org/dc/elements/1.1/" xmlns:rdf="http://www.w3.org/1999/02/22-rdf-syntax-ns#">
 <style/>
 <metadata>
  <rdf:RDF>
   <cc:Work rdf:about="">
    <dc:format>image/svg+xml</dc:format>
    <dc:type rdf:resource="http://purl.org/dc/dcmitype/StillImage"/>
    <dc:title/>
   </cc:Work>
  </rdf:RDF>
 </metadata>
 <g transform="matrix(.65454 0 0 .65454 -7.709 -7.709)" fill="#606060">
  <path transform="matrix(1.1111 0 0 1.1111 11.778 11.778)" d="m4.699 3.801c-1.8 0-1.799-1e-3 -1.799 1.799v12.6c0 1.8-1e-3 1.801 1.799 1.801h12.602c1.8 0 1.799-1e-3 1.799-1.801v-12.6c0-1.979 1e-3 -1.799-1.799-1.799h-0.9v12.6h-10.801v-12.6h-0.9z" fill-rule="evenodd"/>
  <path d="m20 14v4h8v-4z"/>
  <path d="m20 20v2h8v-2z"/>
  <path d="m20 24v2h8v-2z"/>
 </g>
</svg>
