<?xml version="1.0" encoding="UTF-8"?>
<svg width="48" height="48" version="1" xmlns="http://www.w3.org/2000/svg" xmlns:cc="http://creativecommons.org/ns#" xmlns:dc="http://purl.org/dc/elements/1.1/" xmlns:rdf="http://www.w3.org/1999/02/22-rdf-syntax-ns#">
 <metadata>
  <rdf:RDF>
   <cc:Work rdf:about="">
    <dc:format>image/svg+xml</dc:format>
    <dc:type rdf:resource="http://purl.org/dc/dcmitype/StillImage"/>
    <dc:title/>
   </cc:Work>
  </rdf:RDF>
 </metadata>
 <g fill="#fff">
  <path d="m39.953 5.0527c-0.293-0.00432-0.62883 0.025377-1.0117 0.09375l-21.803 4.293c-3.2287 0.32166-3.1387 2.5605-3.1387 3.5605v20.76c3.5301 0.91146 5.9974-2.4059 6 1.24v-20.07l16-3.2578v17.088c3.5301 0.91146 5.9974-2.4059 6 1.24v-22.4c2.54e-4 -0.875 0.0041-2.5166-2.0469-2.5469z"/>
  <circle cx="12" cy="35" r="8"/>
  <circle cx="34" cy="30" r="8"/>
  <path d="m39.953 5.0527c-0.293-0.00432-0.62883 0.025377-1.0117 0.09375l-21.803 4.293c-3.2287 0.32166-3.1387 2.5605-3.1387 3.5605v1c0-1-0.09003-3.2389 3.1387-3.5605l21.803-4.293c0.38289-0.068373 0.71872-0.09807 1.0117-0.09375 2.051 0.030233 2.0471 1.6719 2.0469 2.5469v-1c2.54e-4 -0.875 0.0041-2.5166-2.0469-2.5469z" opacity=".1"/>
  <path d="M 12,27 A 8,8 0 0 0 4,35 8,8 0 0 0 4.0214844,35.576172 8,8 0 0 1 12,28 8,8 0 0 1 19.978516,35.423828 8,8 0 0 0 20,35 8,8 0 0 0 12,27 Z" opacity=".2"/>
  <path d="m 34,22 a 8,8 0 0 0 -8,8 8,8 0 0 0 0.02148,0.576172 A 8,8 0 0 1 34,23 8,8 0 0 1 41.978516,30.423828 8,8 0 0 0 42,30 8,8 0 0 0 34,22 Z" opacity=".2"/>
 </g>
</svg>
