<?xml version="1.0" encoding="UTF-8" standalone="no"?>
<svg
   xmlns:dc="http://purl.org/dc/elements/1.1/"
   xmlns:cc="http://creativecommons.org/ns#"
   xmlns:rdf="http://www.w3.org/1999/02/22-rdf-syntax-ns#"
   xmlns:svg="http://www.w3.org/2000/svg"
   xmlns="http://www.w3.org/2000/svg"
   xmlns:xlink="http://www.w3.org/1999/xlink"
   xmlns:sodipodi="http://sodipodi.sourceforge.net/DTD/sodipodi-0.dtd"
   xmlns:inkscape="http://www.inkscape.org/namespaces/inkscape"
   version="1"
   width="22"
   height="22"
   id="svg17"
   sodipodi:docname="nm-device-wired.svg"
   inkscape:version="1.0.1 (3bc2e813f5, 2020-09-07, custom)">
  <metadata
     id="metadata21">
    <rdf:RDF>
      <cc:Work
         rdf:about="">
        <dc:format>image/svg+xml</dc:format>
        <dc:type
           rdf:resource="http://purl.org/dc/dcmitype/StillImage" />
      </cc:Work>
    </rdf:RDF>
  </metadata>
  <sodipodi:namedview
     pagecolor="#ffffff"
     bordercolor="#666666"
     borderopacity="1"
     objecttolerance="10"
     gridtolerance="10"
     guidetolerance="10"
     inkscape:pageopacity="0"
     inkscape:pageshadow="2"
     inkscape:window-width="1920"
     inkscape:window-height="1021"
     id="namedview19"
     showgrid="false"
     inkscape:zoom="38.954545"
     inkscape:cx="11"
     inkscape:cy="11"
     inkscape:window-x="0"
     inkscape:window-y="0"
     inkscape:window-maximized="1"
     inkscape:current-layer="svg17" />
  <defs
     id="defs9">
    <linearGradient
       id="linearGradient3678">
      <stop
         style="stop-color:#ffffff;stop-opacity:1"
         offset="0"
         id="stop2" />
      <stop
         style="stop-color:#e6e6e6;stop-opacity:1"
         offset="1"
         id="stop4" />
    </linearGradient>
    <linearGradient
       x1="9.17"
       y1="3"
       x2="9.311"
       y2="15"
       id="linearGradient3684"
       xlink:href="#linearGradient3678"
       gradientUnits="userSpaceOnUse" />
    <linearGradient
       x1="15"
       y1="8"
       x2="15"
       y2="20"
       id="linearGradient3692"
       xlink:href="#linearGradient3678"
       gradientUnits="userSpaceOnUse" />
  </defs>
  <path
     d="M 7,4 2,9 5,9 5,16 9,16 9,9 12,9 7,4 z m 6,5 0,7 -3,0 5,5 5,-5 -3,0 0,-7 -4,0 z"
     style="opacity:0.5;fill:#000000;fill-opacity:1"
     id="path11" />
  <path
     d="m 20,15 -5,5 -5,-5 3,0 0,-7 4,0 0,7 3,0 z"
     style="fill:#595d5e;fill-opacity:1"
     id="path13" />
  <path
     d="M 12,8 7,3 2,8 l 3,0 0,7 4,0 0,-7 3,0 z"
     style="fill:#595d5e;fill-opacity:1"
     id="path15" />
</svg>
