<?xml version="1.0" encoding="UTF-8"?>
<svg width="32" height="32" version="1.1" viewBox="0 0 32 32" xmlns="http://www.w3.org/2000/svg" xmlns:cc="http://creativecommons.org/ns#" xmlns:dc="http://purl.org/dc/elements/1.1/" xmlns:rdf="http://www.w3.org/1999/02/22-rdf-syntax-ns#">
 <style/>
 <metadata>
  <rdf:RDF>
   <cc:Work rdf:about="">
    <dc:format>image/svg+xml</dc:format>
    <dc:type rdf:resource="http://purl.org/dc/dcmitype/StillImage"/>
    <dc:title/>
   </cc:Work>
  </rdf:RDF>
 </metadata>
 <defs>
  <style id="current-color-scheme" type="text/css">.ColorScheme-Text {
        color:#eff0f1
      }</style>
 </defs>
 <path class="ColorScheme-Text" d="m27.785 4.349-23.741 0.052636 0.052641 23.741 23.741-0.052634zm-1.4805 1.4871 0.04606 20.773-20.773 0.04606-0.04606-20.773 1.4867-0.00328zm-19.287 0.042768 0.00921 4.1529 4.9504 4.1449 2.4616-2.0805zm0.046061 20.773 7.3936-6.2501-7.4212-6.2144zm17.767-16.361a2.9676 2.9676 0 0 0-2.9742-2.961 2.9676 2.9676 0 0 0-2.961 2.9742 2.9676 2.9676 0 0 0 2.9742 2.961 2.9676 2.9676 0 0 0 2.961-2.9742z" color="#eff0f1" fill="#606060" stroke-width=".86608"/>
</svg>
