<?xml version="1.0" encoding="UTF-8" standalone="no"?>
<svg
   xmlns:dc="http://purl.org/dc/elements/1.1/"
   xmlns:cc="http://creativecommons.org/ns#"
   xmlns:rdf="http://www.w3.org/1999/02/22-rdf-syntax-ns#"
   xmlns:svg="http://www.w3.org/2000/svg"
   xmlns="http://www.w3.org/2000/svg"
   xmlns:sodipodi="http://sodipodi.sourceforge.net/DTD/sodipodi-0.dtd"
   xmlns:inkscape="http://www.inkscape.org/namespaces/inkscape"
   width="512"
   height="512"
   version="1.1"
   viewBox="0 0 512 512"
   id="svg12"
   sodipodi:docname="flameshot.svg"
   inkscape:version="1.0.1 (3bc2e813f5, 2020-09-07)">
  <metadata
     id="metadata18">
    <rdf:RDF>
      <cc:Work
         rdf:about="">
        <dc:format>image/svg+xml</dc:format>
        <dc:type
           rdf:resource="http://purl.org/dc/dcmitype/StillImage" />
        <dc:title></dc:title>
      </cc:Work>
    </rdf:RDF>
  </metadata>
  <defs
     id="defs16" />
  <sodipodi:namedview
     pagecolor="#ffffff"
     bordercolor="#666666"
     borderopacity="1"
     objecttolerance="10"
     gridtolerance="10"
     guidetolerance="10"
     inkscape:pageopacity="0"
     inkscape:pageshadow="2"
     inkscape:window-width="1920"
     inkscape:window-height="1021"
     id="namedview14"
     showgrid="false"
     inkscape:zoom="1.6464844"
     inkscape:cx="156.09015"
     inkscape:cy="256"
     inkscape:window-x="0"
     inkscape:window-y="0"
     inkscape:window-maximized="1"
     inkscape:current-layer="svg12" />
  <path
     d="m471.95 253.05c0 120.9-98.01 218.9-218.9 218.9-120.9 0-218.9-98.01-218.9-218.9 0-120.9 98.01-218.9 218.9-218.9 120.9 0 218.9 98.01 218.9 218.9"
     fill="#891fb9"
     fill-rule="evenodd"
     id="path2"
     style="fill:#ff9900;fill-opacity:1" />
  <g
     fill="#ffffff"
     stroke-width="7.1739"
     id="g10">
    <path
       d="m281.35 213.98c133.1-25.692 138.22-83.741 138.22-83.741s-10.482 179.9-107.76 189.42c-123.27 12.062-141.69 70.214-141.69 70.214s32.965-160.79 111.22-175.9z"
       id="path4" />
    <path
       d="m201.04 206.04c112.78-47.765 102.45-125.68 102.45-125.68s62.268 158.96-31.08 196.02c-104.28 41.399-99.64 112.11-99.64 112.11s-37.973-154.39 28.266-182.45z"
       id="path6" />
    <path
       d="m134.6 248.3c63.365-83.556 49.113-142.16 49.113-142.16s81.185 101.8 25.941 164.85c-61.713 70.435-34.837 119.44-34.837 119.44s-76.561-94.203-40.217-142.13z"
       id="path8" />
  </g>
</svg>
